<?xml version="1.0" encoding="UTF-8" standalone="no"?>
<svg
   xmlns:dc="http://purl.org/dc/elements/1.1/"
   xmlns:cc="http://creativecommons.org/ns#"
   xmlns:rdf="http://www.w3.org/1999/02/22-rdf-syntax-ns#"
   xmlns:svg="http://www.w3.org/2000/svg"
   xmlns="http://www.w3.org/2000/svg"
   xmlns:sodipodi="http://sodipodi.sourceforge.net/DTD/sodipodi-0.dtd"
   xmlns:inkscape="http://www.inkscape.org/namespaces/inkscape"
   width="220mm"
   height="220mm"
   viewBox="0 0 220 220"
   version="1.1"
   id="svg8"
   inkscape:version="1.0.2 (e86c870879, 2021-01-15)"
   sodipodi:docname="lyric-symbolic.svg">
  <defs
     id="defs2">
    <rect
       x="-84.228882"
       y="35.449448"
       width="79.325729"
       height="92.048859"
       id="rect836" />
  </defs>
  <sodipodi:namedview
     id="base"
     pagecolor="#ffffff"
     bordercolor="#666666"
     borderopacity="1.0"
     inkscape:pageopacity="0.0"
     inkscape:pageshadow="2"
     inkscape:zoom="0.73620568"
     inkscape:cx="110.02097"
     inkscape:cy="465.77731"
     inkscape:document-units="mm"
     inkscape:current-layer="layer1"
     inkscape:document-rotation="0"
     showgrid="false"
     showguides="false"
     inkscape:window-width="1920"
     inkscape:window-height="1020"
     inkscape:window-x="0"
     inkscape:window-y="28"
     inkscape:window-maximized="1" />
  <metadata
     id="metadata5">
    <rdf:RDF>
      <cc:Work
         rdf:about="">
        <dc:format>image/svg+xml</dc:format>
        <dc:type
           rdf:resource="http://purl.org/dc/dcmitype/StillImage" />
        <dc:title />
      </cc:Work>
    </rdf:RDF>
  </metadata>
  <g
     inkscape:label="Layer 1"
     inkscape:groupmode="layer"
     id="layer1">
    <path
       id="rect833-6"
       style="opacity:1;fill:#000000;fill-opacity:1;stroke-width:0.474208"
       d="M 106.3359,85.000129 C 99.787841,84.962335 90,94.748151 90,108.26178 c 0,13.51362 9.604756,26.45248 16.15356,26.47804 l 66.32758,0.25888 C 179.02995,135.02426 190,123.91917 190,110.40556 190,96.891928 179.95158,85.425019 173.40347,85.387225 Z"
       sodipodi:nodetypes="sssssss" />
    <text
       xml:space="preserve"
       id="text834"
       style="font-style:normal;font-weight:normal;font-size:10.5833px;line-height:1.25;font-family:sans-serif;white-space:pre;shape-inside:url(#rect836);fill:#000000;fill-opacity:1;stroke:none;" />
    <path
       id="rect833-67"
       style="fill:#000000;fill-opacity:1;stroke-width:0.621825"
       d="M 47.197217,150.01405 C 36.340645,150.01526 30,160.68623 30,174.70165 30,188.71706 35.653127,200.00172 46.509705,200 L 173.16962,199.98 C 184.02621,199.97829 190,189.49964 190,175.48423 190,161.46881 183.41999,149.99878 172.56341,150 Z"
       sodipodi:nodetypes="sssssss" />
    <path
       sodipodi:type="star"
       style="fill:#000000;stroke-width:0.53684"
       id="path1703"
       sodipodi:sides="3"
       sodipodi:cx="36.565407"
       sodipodi:cy="94.583511"
       sodipodi:r1="29.505619"
       sodipodi:r2="14.75281"
       sodipodi:arg1="-3.0536684"
       sodipodi:arg2="-2.0064708"
       inkscape:flatsided="true"
       inkscape:rounded="1"
       inkscape:randomized="0"
       d="M 7.1737635,91.992593 C 11.661366,41.084774 11.661366,41.084774 53.50503,70.425061 95.348693,99.765348 95.348693,99.765348 49.017427,121.33288 2.6861614,142.90041 2.6861614,142.90041 7.1737635,91.992593 Z"
       inkscape:transform-center-x="-7.08994"
       inkscape:transform-center-y="0.21820654"
       transform="matrix(0.7698122,-0.0935099,0.07656289,0.94020822,-2.4800244,24.272826)" />
    <path
       id="rect833-67-3"
       style="fill:#000000;fill-opacity:1;stroke-width:0.621825"
       d="M 47.197217,20.014041 C 36.340645,20.015258 30,30.686225 30,44.701646 30,58.717049 35.653127,70.001715 46.509705,70 L 173.16962,69.98 C 184.02621,69.978339 190,59.499635 190,45.484231 190,31.468811 183.41999,19.998785 172.56341,20 Z"
       sodipodi:nodetypes="sssssss" />
  </g>
</svg>
